<?xml version="1.0" encoding="utf-8" standalone="no"?>
<!DOCTYPE svg PUBLIC "-//W3C//DTD SVG 1.1//EN"
  "http://www.w3.org/Graphics/SVG/1.1/DTD/svg11.dtd">
<svg xmlns:xlink="http://www.w3.org/1999/xlink" width="712.613281pt" height="424.106719pt" viewBox="0 0 712.613281 424.106719" xmlns="http://www.w3.org/2000/svg" version="1.1">
 <metadata>
  <rdf:RDF xmlns:dc="http://purl.org/dc/elements/1.1/" xmlns:cc="http://creativecommons.org/ns#" xmlns:rdf="http://www.w3.org/1999/02/22-rdf-syntax-ns#">
   <cc:Work>
    <dc:type rdf:resource="http://purl.org/dc/dcmitype/StillImage"/>
    <dc:date>2026-06-18T18:56:26.631296</dc:date>
    <dc:format>image/svg+xml</dc:format>
    <dc:creator>
     <cc:Agent>
      <dc:title>Matplotlib v3.10.6, https://matplotlib.org/</dc:title>
     </cc:Agent>
    </dc:creator>
   </cc:Work>
  </rdf:RDF>
 </metadata>
 <defs>
  <style type="text/css">*{stroke-linejoin: round; stroke-linecap: butt}</style>
 </defs>
 <g id="figure_1">
  <g id="patch_1">
   <path d="M -0 424.106719 
L 712.613281 424.106719 
L 712.613281 0 
L -0 0 
z
" style="fill: #ffffff"/>
  </g>
  <g id="axes_1">
   <g id="patch_2">
    <path d="M 54.015 382.679219 
L 694.3 382.679219 
L 694.3 10.999219 
L 54.015 10.999219 
z
" style="fill: #ffffff"/>
   </g>
   <g id="FillBetweenPolyCollection_1">
    <defs>
     <path id="md428ae6131" d="M 54.015 -334.772597 
L 54.015 -277.993755 
L 76.093793 -259.07175 
L 98.172586 -241.857482 
L 120.251379 -228.30248 
L 142.330172 -213.739358 
L 164.408966 -203.510161 
L 186.487759 -193.677871 
L 208.566552 -182.4739 
L 230.645345 -173.435083 
L 252.724138 -164.222096 
L 274.802931 -157.271093 
L 296.881724 -148.78974 
L 318.960517 -138.663512 
L 341.03931 -131.770616 
L 363.118103 -129.066092 
L 385.196897 -123.010426 
L 407.27569 -113.692723 
L 429.354483 -107.385238 
L 451.433276 -103.836018 
L 473.512069 -99.670659 
L 495.590862 -97.889202 
L 517.669655 -93.285171 
L 539.748448 -84.866533 
L 561.827241 -78.98322 
L 583.906034 -74.918126 
L 605.984828 -72.831433 
L 628.063621 -67.727655 
L 650.142414 -64.293519 
L 672.221207 -66.689283 
L 694.3 -63.735588 
L 694.3 -100.0505 
L 694.3 -100.0505 
L 672.221207 -102.742788 
L 650.142414 -101.963133 
L 628.063621 -105.028735 
L 605.984828 -111.198186 
L 583.906034 -114.235362 
L 561.827241 -117.746055 
L 539.748448 -125.328843 
L 517.669655 -135.770722 
L 495.590862 -139.729149 
L 473.512069 -144.232862 
L 451.433276 -149.621871 
L 429.354483 -154.609385 
L 407.27569 -159.669584 
L 385.196897 -170.644109 
L 363.118103 -176.550206 
L 341.03931 -179.497676 
L 318.960517 -187.250216 
L 296.881724 -198.353042 
L 274.802931 -207.226391 
L 252.724138 -215.766669 
L 230.645345 -225.122636 
L 208.566552 -234.476984 
L 186.487759 -247.744089 
L 164.408966 -257.58923 
L 142.330172 -267.033083 
L 120.251379 -282.217177 
L 98.172586 -296.818024 
L 76.093793 -314.540237 
L 54.015 -334.772597 
z
" style="stroke: #888888; stroke-opacity: 0.1"/>
    </defs>
    <g clip-path="url(#p362e3a9129)">
     <use xlink:href="#md428ae6131" x="0" y="424.106719" style="fill: #888888; fill-opacity: 0.1; stroke: #888888; stroke-opacity: 0.1"/>
    </g>
   </g>
   <g id="FillBetweenPolyCollection_2">
    <defs>
     <path id="m10501c590b" d="M 54.015 -331.16014 
L 54.015 -275.70641 
L 76.093793 -256.713153 
L 98.172586 -242.371033 
L 120.251379 -220.879996 
L 142.330172 -209.370436 
L 164.408966 -197.716822 
L 186.487759 -190.06483 
L 208.566552 -182.698936 
L 230.645345 -168.173597 
L 252.724138 -159.369015 
L 274.802931 -154.538045 
L 296.881724 -150.220185 
L 318.960517 -144.053444 
L 341.03931 -142.885582 
L 363.118103 -137.635919 
L 385.196897 -136.843786 
L 407.27569 -136.634055 
L 429.354483 -129.133551 
L 451.433276 -128.4681 
L 473.512069 -123.251173 
L 495.590862 -119.762069 
L 517.669655 -115.353624 
L 539.748448 -111.581703 
L 561.827241 -108.825454 
L 583.906034 -110.144215 
L 605.984828 -107.271322 
L 628.063621 -105.657575 
L 650.142414 -107.097693 
L 672.221207 -105.615675 
L 694.3 -105.915794 
L 694.3 -144.483229 
L 694.3 -144.483229 
L 672.221207 -143.897051 
L 650.142414 -145.644502 
L 628.063621 -144.731491 
L 605.984828 -145.322887 
L 583.906034 -146.855346 
L 561.827241 -147.450359 
L 539.748448 -151.591921 
L 517.669655 -156.434767 
L 495.590862 -160.981405 
L 473.512069 -165.42202 
L 451.433276 -170.532719 
L 429.354483 -173.054703 
L 407.27569 -180.374933 
L 385.196897 -180.42168 
L 363.118103 -182.259142 
L 341.03931 -187.344431 
L 318.960517 -187.905131 
L 296.881724 -197.438788 
L 274.802931 -202.7401 
L 252.724138 -208.193436 
L 230.645345 -217.837094 
L 208.566552 -235.098917 
L 186.487759 -242.28179 
L 164.408966 -250.861466 
L 142.330172 -263.860701 
L 120.251379 -275.778351 
L 98.172586 -299.180899 
L 76.093793 -312.904551 
L 54.015 -331.16014 
z
" style="stroke: #0f6e56; stroke-opacity: 0.1"/>
    </defs>
    <g clip-path="url(#p362e3a9129)">
     <use xlink:href="#m10501c590b" x="0" y="424.106719" style="fill: #0f6e56; fill-opacity: 0.1; stroke: #0f6e56; stroke-opacity: 0.1"/>
    </g>
   </g>
   <g id="FillBetweenPolyCollection_3">
    <defs>
     <path id="ma16d48672d" d="M 54.015 -331.415809 
L 54.015 -276.416725 
L 76.093793 -251.456672 
L 98.172586 -237.040099 
L 120.251379 -226.887504 
L 142.330172 -210.798008 
L 164.408966 -200.858365 
L 186.487759 -191.224638 
L 208.566552 -179.575978 
L 230.645345 -167.606026 
L 252.724138 -162.766172 
L 274.802931 -158.694546 
L 296.881724 -153.795803 
L 318.960517 -150.68292 
L 341.03931 -145.280747 
L 363.118103 -144.791359 
L 385.196897 -141.604659 
L 407.27569 -138.48536 
L 429.354483 -132.608594 
L 451.433276 -131.335193 
L 473.512069 -128.279572 
L 495.590862 -126.40136 
L 517.669655 -123.216735 
L 539.748448 -122.517869 
L 561.827241 -119.16788 
L 583.906034 -115.101637 
L 605.984828 -107.820835 
L 628.063621 -104.627857 
L 650.142414 -107.337921 
L 672.221207 -106.256692 
L 694.3 -105.909555 
L 694.3 -142.857793 
L 694.3 -142.857793 
L 672.221207 -143.741103 
L 650.142414 -145.003895 
L 628.063621 -142.997246 
L 605.984828 -148.148954 
L 583.906034 -155.001242 
L 561.827241 -159.632997 
L 539.748448 -163.735748 
L 517.669655 -164.505628 
L 495.590862 -167.570937 
L 473.512069 -169.778874 
L 451.433276 -173.544864 
L 429.354483 -175.287061 
L 407.27569 -181.769463 
L 385.196897 -185.087917 
L 363.118103 -189.049744 
L 341.03931 -189.652748 
L 318.960517 -194.754251 
L 296.881724 -200.654064 
L 274.802931 -205.811527 
L 252.724138 -210.134668 
L 230.645345 -214.982443 
L 208.566552 -228.630815 
L 186.487759 -241.567917 
L 164.408966 -252.884116 
L 142.330172 -263.45151 
L 120.251379 -281.160721 
L 98.172586 -291.824129 
L 76.093793 -306.873904 
L 54.015 -331.415809 
z
" style="stroke: #185fa5; stroke-opacity: 0.1"/>
    </defs>
    <g clip-path="url(#p362e3a9129)">
     <use xlink:href="#ma16d48672d" x="0" y="424.106719" style="fill: #185fa5; fill-opacity: 0.1; stroke: #185fa5; stroke-opacity: 0.1"/>
    </g>
   </g>
   <g id="matplotlib.axis_1">
    <g id="xtick_1">
     <g id="line2d_1">
      <defs>
       <path id="md8bd0c95c0" d="M 0 0 
L 0 3.5 
" style="stroke: #000000; stroke-width: 0.8"/>
      </defs>
      <g>
       <use xlink:href="#md8bd0c95c0" x="142.330172" y="382.679219" style="stroke: #000000; stroke-width: 0.8"/>
      </g>
     </g>
     <g id="text_1">
      <!-- 5% -->
      <g transform="translate(134.398141 397.277656) scale(0.1 -0.1)">
       <defs>
        <path id="DejaVuSans-35" d="M 691 4666 
L 3169 4666 
L 3169 4134 
L 1269 4134 
L 1269 2991 
Q 1406 3038 1543 3061 
Q 1681 3084 1819 3084 
Q 2600 3084 3056 2656 
Q 3513 2228 3513 1497 
Q 3513 744 3044 326 
Q 2575 -91 1722 -91 
Q 1428 -91 1123 -41 
Q 819 9 494 109 
L 494 744 
Q 775 591 1075 516 
Q 1375 441 1709 441 
Q 2250 441 2565 725 
Q 2881 1009 2881 1497 
Q 2881 1984 2565 2268 
Q 2250 2553 1709 2553 
Q 1456 2553 1204 2497 
Q 953 2441 691 2322 
L 691 4666 
z
" transform="scale(0.015625)"/>
        <path id="DejaVuSans-25" d="M 4653 2053 
Q 4381 2053 4226 1822 
Q 4072 1591 4072 1178 
Q 4072 772 4226 539 
Q 4381 306 4653 306 
Q 4919 306 5073 539 
Q 5228 772 5228 1178 
Q 5228 1588 5073 1820 
Q 4919 2053 4653 2053 
z
M 4653 2450 
Q 5147 2450 5437 2106 
Q 5728 1763 5728 1178 
Q 5728 594 5436 251 
Q 5144 -91 4653 -91 
Q 4153 -91 3862 251 
Q 3572 594 3572 1178 
Q 3572 1766 3864 2108 
Q 4156 2450 4653 2450 
z
M 1428 4353 
Q 1159 4353 1004 4120 
Q 850 3888 850 3481 
Q 850 3069 1003 2837 
Q 1156 2606 1428 2606 
Q 1700 2606 1854 2837 
Q 2009 3069 2009 3481 
Q 2009 3884 1853 4118 
Q 1697 4353 1428 4353 
z
M 4250 4750 
L 4750 4750 
L 1831 -91 
L 1331 -91 
L 4250 4750 
z
M 1428 4750 
Q 1922 4750 2215 4408 
Q 2509 4066 2509 3481 
Q 2509 2891 2217 2550 
Q 1925 2209 1428 2209 
Q 931 2209 642 2551 
Q 353 2894 353 3481 
Q 353 4063 643 4406 
Q 934 4750 1428 4750 
z
" transform="scale(0.015625)"/>
       </defs>
       <use xlink:href="#DejaVuSans-35"/>
       <use xlink:href="#DejaVuSans-25" transform="translate(63.623047 0)"/>
      </g>
     </g>
    </g>
    <g id="xtick_2">
     <g id="line2d_2">
      <g>
       <use xlink:href="#md8bd0c95c0" x="252.724138" y="382.679219" style="stroke: #000000; stroke-width: 0.8"/>
      </g>
     </g>
     <g id="text_2">
      <!-- 10% -->
      <g transform="translate(241.610857 397.277656) scale(0.1 -0.1)">
       <defs>
        <path id="DejaVuSans-31" d="M 794 531 
L 1825 531 
L 1825 4091 
L 703 3866 
L 703 4441 
L 1819 4666 
L 2450 4666 
L 2450 531 
L 3481 531 
L 3481 0 
L 794 0 
L 794 531 
z
" transform="scale(0.015625)"/>
        <path id="DejaVuSans-30" d="M 2034 4250 
Q 1547 4250 1301 3770 
Q 1056 3291 1056 2328 
Q 1056 1369 1301 889 
Q 1547 409 2034 409 
Q 2525 409 2770 889 
Q 3016 1369 3016 2328 
Q 3016 3291 2770 3770 
Q 2525 4250 2034 4250 
z
M 2034 4750 
Q 2819 4750 3233 4129 
Q 3647 3509 3647 2328 
Q 3647 1150 3233 529 
Q 2819 -91 2034 -91 
Q 1250 -91 836 529 
Q 422 1150 422 2328 
Q 422 3509 836 4129 
Q 1250 4750 2034 4750 
z
" transform="scale(0.015625)"/>
       </defs>
       <use xlink:href="#DejaVuSans-31"/>
       <use xlink:href="#DejaVuSans-30" transform="translate(63.623047 0)"/>
       <use xlink:href="#DejaVuSans-25" transform="translate(127.246094 0)"/>
      </g>
     </g>
    </g>
    <g id="xtick_3">
     <g id="line2d_3">
      <g>
       <use xlink:href="#md8bd0c95c0" x="363.118103" y="382.679219" style="stroke: #000000; stroke-width: 0.8"/>
      </g>
     </g>
     <g id="text_3">
      <!-- 15% -->
      <g transform="translate(352.004822 397.277656) scale(0.1 -0.1)">
       <use xlink:href="#DejaVuSans-31"/>
       <use xlink:href="#DejaVuSans-35" transform="translate(63.623047 0)"/>
       <use xlink:href="#DejaVuSans-25" transform="translate(127.246094 0)"/>
      </g>
     </g>
    </g>
    <g id="xtick_4">
     <g id="line2d_4">
      <g>
       <use xlink:href="#md8bd0c95c0" x="473.512069" y="382.679219" style="stroke: #000000; stroke-width: 0.8"/>
      </g>
     </g>
     <g id="text_4">
      <!-- 20% -->
      <g transform="translate(462.398788 397.277656) scale(0.1 -0.1)">
       <defs>
        <path id="DejaVuSans-32" d="M 1228 531 
L 3431 531 
L 3431 0 
L 469 0 
L 469 531 
Q 828 903 1448 1529 
Q 2069 2156 2228 2338 
Q 2531 2678 2651 2914 
Q 2772 3150 2772 3378 
Q 2772 3750 2511 3984 
Q 2250 4219 1831 4219 
Q 1534 4219 1204 4116 
Q 875 4013 500 3803 
L 500 4441 
Q 881 4594 1212 4672 
Q 1544 4750 1819 4750 
Q 2544 4750 2975 4387 
Q 3406 4025 3406 3419 
Q 3406 3131 3298 2873 
Q 3191 2616 2906 2266 
Q 2828 2175 2409 1742 
Q 1991 1309 1228 531 
z
" transform="scale(0.015625)"/>
       </defs>
       <use xlink:href="#DejaVuSans-32"/>
       <use xlink:href="#DejaVuSans-30" transform="translate(63.623047 0)"/>
       <use xlink:href="#DejaVuSans-25" transform="translate(127.246094 0)"/>
      </g>
     </g>
    </g>
    <g id="xtick_5">
     <g id="line2d_5">
      <g>
       <use xlink:href="#md8bd0c95c0" x="583.906034" y="382.679219" style="stroke: #000000; stroke-width: 0.8"/>
      </g>
     </g>
     <g id="text_5">
      <!-- 25% -->
      <g transform="translate(572.792753 397.277656) scale(0.1 -0.1)">
       <use xlink:href="#DejaVuSans-32"/>
       <use xlink:href="#DejaVuSans-35" transform="translate(63.623047 0)"/>
       <use xlink:href="#DejaVuSans-25" transform="translate(127.246094 0)"/>
      </g>
     </g>
    </g>
    <g id="xtick_6">
     <g id="line2d_6">
      <g>
       <use xlink:href="#md8bd0c95c0" x="694.3" y="382.679219" style="stroke: #000000; stroke-width: 0.8"/>
      </g>
     </g>
     <g id="text_6">
      <!-- 30% -->
      <g transform="translate(683.186719 397.277656) scale(0.1 -0.1)">
       <defs>
        <path id="DejaVuSans-33" d="M 2597 2516 
Q 3050 2419 3304 2112 
Q 3559 1806 3559 1356 
Q 3559 666 3084 287 
Q 2609 -91 1734 -91 
Q 1441 -91 1130 -33 
Q 819 25 488 141 
L 488 750 
Q 750 597 1062 519 
Q 1375 441 1716 441 
Q 2309 441 2620 675 
Q 2931 909 2931 1356 
Q 2931 1769 2642 2001 
Q 2353 2234 1838 2234 
L 1294 2234 
L 1294 2753 
L 1863 2753 
Q 2328 2753 2575 2939 
Q 2822 3125 2822 3475 
Q 2822 3834 2567 4026 
Q 2313 4219 1838 4219 
Q 1578 4219 1281 4162 
Q 984 4106 628 3988 
L 628 4550 
Q 988 4650 1302 4700 
Q 1616 4750 1894 4750 
Q 2613 4750 3031 4423 
Q 3450 4097 3450 3541 
Q 3450 3153 3228 2886 
Q 3006 2619 2597 2516 
z
" transform="scale(0.015625)"/>
       </defs>
       <use xlink:href="#DejaVuSans-33"/>
       <use xlink:href="#DejaVuSans-30" transform="translate(63.623047 0)"/>
       <use xlink:href="#DejaVuSans-25" transform="translate(127.246094 0)"/>
      </g>
     </g>
    </g>
    <g id="text_7">
     <!-- How confident must the model be before the clinician refers? (risk threshold) -->
     <g transform="translate(104.186094 413.995156) scale(0.14 -0.14)">
      <defs>
       <path id="DejaVuSans-48" d="M 628 4666 
L 1259 4666 
L 1259 2753 
L 3553 2753 
L 3553 4666 
L 4184 4666 
L 4184 0 
L 3553 0 
L 3553 2222 
L 1259 2222 
L 1259 0 
L 628 0 
L 628 4666 
z
" transform="scale(0.015625)"/>
       <path id="DejaVuSans-6f" d="M 1959 3097 
Q 1497 3097 1228 2736 
Q 959 2375 959 1747 
Q 959 1119 1226 758 
Q 1494 397 1959 397 
Q 2419 397 2687 759 
Q 2956 1122 2956 1747 
Q 2956 2369 2687 2733 
Q 2419 3097 1959 3097 
z
M 1959 3584 
Q 2709 3584 3137 3096 
Q 3566 2609 3566 1747 
Q 3566 888 3137 398 
Q 2709 -91 1959 -91 
Q 1206 -91 779 398 
Q 353 888 353 1747 
Q 353 2609 779 3096 
Q 1206 3584 1959 3584 
z
" transform="scale(0.015625)"/>
       <path id="DejaVuSans-77" d="M 269 3500 
L 844 3500 
L 1563 769 
L 2278 3500 
L 2956 3500 
L 3675 769 
L 4391 3500 
L 4966 3500 
L 4050 0 
L 3372 0 
L 2619 2869 
L 1863 0 
L 1184 0 
L 269 3500 
z
" transform="scale(0.015625)"/>
       <path id="DejaVuSans-20" transform="scale(0.015625)"/>
       <path id="DejaVuSans-63" d="M 3122 3366 
L 3122 2828 
Q 2878 2963 2633 3030 
Q 2388 3097 2138 3097 
Q 1578 3097 1268 2742 
Q 959 2388 959 1747 
Q 959 1106 1268 751 
Q 1578 397 2138 397 
Q 2388 397 2633 464 
Q 2878 531 3122 666 
L 3122 134 
Q 2881 22 2623 -34 
Q 2366 -91 2075 -91 
Q 1284 -91 818 406 
Q 353 903 353 1747 
Q 353 2603 823 3093 
Q 1294 3584 2113 3584 
Q 2378 3584 2631 3529 
Q 2884 3475 3122 3366 
z
" transform="scale(0.015625)"/>
       <path id="DejaVuSans-6e" d="M 3513 2113 
L 3513 0 
L 2938 0 
L 2938 2094 
Q 2938 2591 2744 2837 
Q 2550 3084 2163 3084 
Q 1697 3084 1428 2787 
Q 1159 2491 1159 1978 
L 1159 0 
L 581 0 
L 581 3500 
L 1159 3500 
L 1159 2956 
Q 1366 3272 1645 3428 
Q 1925 3584 2291 3584 
Q 2894 3584 3203 3211 
Q 3513 2838 3513 2113 
z
" transform="scale(0.015625)"/>
       <path id="DejaVuSans-66" d="M 2375 4863 
L 2375 4384 
L 1825 4384 
Q 1516 4384 1395 4259 
Q 1275 4134 1275 3809 
L 1275 3500 
L 2222 3500 
L 2222 3053 
L 1275 3053 
L 1275 0 
L 697 0 
L 697 3053 
L 147 3053 
L 147 3500 
L 697 3500 
L 697 3744 
Q 697 4328 969 4595 
Q 1241 4863 1831 4863 
L 2375 4863 
z
" transform="scale(0.015625)"/>
       <path id="DejaVuSans-69" d="M 603 3500 
L 1178 3500 
L 1178 0 
L 603 0 
L 603 3500 
z
M 603 4863 
L 1178 4863 
L 1178 4134 
L 603 4134 
L 603 4863 
z
" transform="scale(0.015625)"/>
       <path id="DejaVuSans-64" d="M 2906 2969 
L 2906 4863 
L 3481 4863 
L 3481 0 
L 2906 0 
L 2906 525 
Q 2725 213 2448 61 
Q 2172 -91 1784 -91 
Q 1150 -91 751 415 
Q 353 922 353 1747 
Q 353 2572 751 3078 
Q 1150 3584 1784 3584 
Q 2172 3584 2448 3432 
Q 2725 3281 2906 2969 
z
M 947 1747 
Q 947 1113 1208 752 
Q 1469 391 1925 391 
Q 2381 391 2643 752 
Q 2906 1113 2906 1747 
Q 2906 2381 2643 2742 
Q 2381 3103 1925 3103 
Q 1469 3103 1208 2742 
Q 947 2381 947 1747 
z
" transform="scale(0.015625)"/>
       <path id="DejaVuSans-65" d="M 3597 1894 
L 3597 1613 
L 953 1613 
Q 991 1019 1311 708 
Q 1631 397 2203 397 
Q 2534 397 2845 478 
Q 3156 559 3463 722 
L 3463 178 
Q 3153 47 2828 -22 
Q 2503 -91 2169 -91 
Q 1331 -91 842 396 
Q 353 884 353 1716 
Q 353 2575 817 3079 
Q 1281 3584 2069 3584 
Q 2775 3584 3186 3129 
Q 3597 2675 3597 1894 
z
M 3022 2063 
Q 3016 2534 2758 2815 
Q 2500 3097 2075 3097 
Q 1594 3097 1305 2825 
Q 1016 2553 972 2059 
L 3022 2063 
z
" transform="scale(0.015625)"/>
       <path id="DejaVuSans-74" d="M 1172 4494 
L 1172 3500 
L 2356 3500 
L 2356 3053 
L 1172 3053 
L 1172 1153 
Q 1172 725 1289 603 
Q 1406 481 1766 481 
L 2356 481 
L 2356 0 
L 1766 0 
Q 1100 0 847 248 
Q 594 497 594 1153 
L 594 3053 
L 172 3053 
L 172 3500 
L 594 3500 
L 594 4494 
L 1172 4494 
z
" transform="scale(0.015625)"/>
       <path id="DejaVuSans-6d" d="M 3328 2828 
Q 3544 3216 3844 3400 
Q 4144 3584 4550 3584 
Q 5097 3584 5394 3201 
Q 5691 2819 5691 2113 
L 5691 0 
L 5113 0 
L 5113 2094 
Q 5113 2597 4934 2840 
Q 4756 3084 4391 3084 
Q 3944 3084 3684 2787 
Q 3425 2491 3425 1978 
L 3425 0 
L 2847 0 
L 2847 2094 
Q 2847 2600 2669 2842 
Q 2491 3084 2119 3084 
Q 1678 3084 1418 2786 
Q 1159 2488 1159 1978 
L 1159 0 
L 581 0 
L 581 3500 
L 1159 3500 
L 1159 2956 
Q 1356 3278 1631 3431 
Q 1906 3584 2284 3584 
Q 2666 3584 2933 3390 
Q 3200 3197 3328 2828 
z
" transform="scale(0.015625)"/>
       <path id="DejaVuSans-75" d="M 544 1381 
L 544 3500 
L 1119 3500 
L 1119 1403 
Q 1119 906 1312 657 
Q 1506 409 1894 409 
Q 2359 409 2629 706 
Q 2900 1003 2900 1516 
L 2900 3500 
L 3475 3500 
L 3475 0 
L 2900 0 
L 2900 538 
Q 2691 219 2414 64 
Q 2138 -91 1772 -91 
Q 1169 -91 856 284 
Q 544 659 544 1381 
z
M 1991 3584 
L 1991 3584 
z
" transform="scale(0.015625)"/>
       <path id="DejaVuSans-73" d="M 2834 3397 
L 2834 2853 
Q 2591 2978 2328 3040 
Q 2066 3103 1784 3103 
Q 1356 3103 1142 2972 
Q 928 2841 928 2578 
Q 928 2378 1081 2264 
Q 1234 2150 1697 2047 
L 1894 2003 
Q 2506 1872 2764 1633 
Q 3022 1394 3022 966 
Q 3022 478 2636 193 
Q 2250 -91 1575 -91 
Q 1294 -91 989 -36 
Q 684 19 347 128 
L 347 722 
Q 666 556 975 473 
Q 1284 391 1588 391 
Q 1994 391 2212 530 
Q 2431 669 2431 922 
Q 2431 1156 2273 1281 
Q 2116 1406 1581 1522 
L 1381 1569 
Q 847 1681 609 1914 
Q 372 2147 372 2553 
Q 372 3047 722 3315 
Q 1072 3584 1716 3584 
Q 2034 3584 2315 3537 
Q 2597 3491 2834 3397 
z
" transform="scale(0.015625)"/>
       <path id="DejaVuSans-68" d="M 3513 2113 
L 3513 0 
L 2938 0 
L 2938 2094 
Q 2938 2591 2744 2837 
Q 2550 3084 2163 3084 
Q 1697 3084 1428 2787 
Q 1159 2491 1159 1978 
L 1159 0 
L 581 0 
L 581 4863 
L 1159 4863 
L 1159 2956 
Q 1366 3272 1645 3428 
Q 1925 3584 2291 3584 
Q 2894 3584 3203 3211 
Q 3513 2838 3513 2113 
z
" transform="scale(0.015625)"/>
       <path id="DejaVuSans-6c" d="M 603 4863 
L 1178 4863 
L 1178 0 
L 603 0 
L 603 4863 
z
" transform="scale(0.015625)"/>
       <path id="DejaVuSans-62" d="M 3116 1747 
Q 3116 2381 2855 2742 
Q 2594 3103 2138 3103 
Q 1681 3103 1420 2742 
Q 1159 2381 1159 1747 
Q 1159 1113 1420 752 
Q 1681 391 2138 391 
Q 2594 391 2855 752 
Q 3116 1113 3116 1747 
z
M 1159 2969 
Q 1341 3281 1617 3432 
Q 1894 3584 2278 3584 
Q 2916 3584 3314 3078 
Q 3713 2572 3713 1747 
Q 3713 922 3314 415 
Q 2916 -91 2278 -91 
Q 1894 -91 1617 61 
Q 1341 213 1159 525 
L 1159 0 
L 581 0 
L 581 4863 
L 1159 4863 
L 1159 2969 
z
" transform="scale(0.015625)"/>
       <path id="DejaVuSans-72" d="M 2631 2963 
Q 2534 3019 2420 3045 
Q 2306 3072 2169 3072 
Q 1681 3072 1420 2755 
Q 1159 2438 1159 1844 
L 1159 0 
L 581 0 
L 581 3500 
L 1159 3500 
L 1159 2956 
Q 1341 3275 1631 3429 
Q 1922 3584 2338 3584 
Q 2397 3584 2469 3576 
Q 2541 3569 2628 3553 
L 2631 2963 
z
" transform="scale(0.015625)"/>
       <path id="DejaVuSans-61" d="M 2194 1759 
Q 1497 1759 1228 1600 
Q 959 1441 959 1056 
Q 959 750 1161 570 
Q 1363 391 1709 391 
Q 2188 391 2477 730 
Q 2766 1069 2766 1631 
L 2766 1759 
L 2194 1759 
z
M 3341 1997 
L 3341 0 
L 2766 0 
L 2766 531 
Q 2569 213 2275 61 
Q 1981 -91 1556 -91 
Q 1019 -91 701 211 
Q 384 513 384 1019 
Q 384 1609 779 1909 
Q 1175 2209 1959 2209 
L 2766 2209 
L 2766 2266 
Q 2766 2663 2505 2880 
Q 2244 3097 1772 3097 
Q 1472 3097 1187 3025 
Q 903 2953 641 2809 
L 641 3341 
Q 956 3463 1253 3523 
Q 1550 3584 1831 3584 
Q 2591 3584 2966 3190 
Q 3341 2797 3341 1997 
z
" transform="scale(0.015625)"/>
       <path id="DejaVuSans-3f" d="M 1222 794 
L 1856 794 
L 1856 0 
L 1222 0 
L 1222 794 
z
M 1838 1253 
L 1241 1253 
L 1241 1734 
Q 1241 2050 1328 2253 
Q 1416 2456 1697 2725 
L 1978 3003 
Q 2156 3169 2236 3316 
Q 2316 3463 2316 3616 
Q 2316 3894 2111 4066 
Q 1906 4238 1569 4238 
Q 1322 4238 1042 4128 
Q 763 4019 459 3809 
L 459 4397 
Q 753 4575 1054 4662 
Q 1356 4750 1678 4750 
Q 2253 4750 2601 4447 
Q 2950 4144 2950 3647 
Q 2950 3409 2837 3195 
Q 2725 2981 2444 2713 
L 2169 2444 
Q 2022 2297 1961 2214 
Q 1900 2131 1875 2053 
Q 1856 1988 1847 1894 
Q 1838 1800 1838 1638 
L 1838 1253 
z
" transform="scale(0.015625)"/>
       <path id="DejaVuSans-28" d="M 1984 4856 
Q 1566 4138 1362 3434 
Q 1159 2731 1159 2009 
Q 1159 1288 1364 580 
Q 1569 -128 1984 -844 
L 1484 -844 
Q 1016 -109 783 600 
Q 550 1309 550 2009 
Q 550 2706 781 3412 
Q 1013 4119 1484 4856 
L 1984 4856 
z
" transform="scale(0.015625)"/>
       <path id="DejaVuSans-6b" d="M 581 4863 
L 1159 4863 
L 1159 1991 
L 2875 3500 
L 3609 3500 
L 1753 1863 
L 3688 0 
L 2938 0 
L 1159 1709 
L 1159 0 
L 581 0 
L 581 4863 
z
" transform="scale(0.015625)"/>
       <path id="DejaVuSans-29" d="M 513 4856 
L 1013 4856 
Q 1481 4119 1714 3412 
Q 1947 2706 1947 2009 
Q 1947 1309 1714 600 
Q 1481 -109 1013 -844 
L 513 -844 
Q 928 -128 1133 580 
Q 1338 1288 1338 2009 
Q 1338 2731 1133 3434 
Q 928 4138 513 4856 
z
" transform="scale(0.015625)"/>
      </defs>
      <use xlink:href="#DejaVuSans-48"/>
      <use xlink:href="#DejaVuSans-6f" transform="translate(75.195312 0)"/>
      <use xlink:href="#DejaVuSans-77" transform="translate(136.376953 0)"/>
      <use xlink:href="#DejaVuSans-20" transform="translate(218.164062 0)"/>
      <use xlink:href="#DejaVuSans-63" transform="translate(249.951172 0)"/>
      <use xlink:href="#DejaVuSans-6f" transform="translate(304.931641 0)"/>
      <use xlink:href="#DejaVuSans-6e" transform="translate(366.113281 0)"/>
      <use xlink:href="#DejaVuSans-66" transform="translate(429.492188 0)"/>
      <use xlink:href="#DejaVuSans-69" transform="translate(464.697266 0)"/>
      <use xlink:href="#DejaVuSans-64" transform="translate(492.480469 0)"/>
      <use xlink:href="#DejaVuSans-65" transform="translate(555.957031 0)"/>
      <use xlink:href="#DejaVuSans-6e" transform="translate(617.480469 0)"/>
      <use xlink:href="#DejaVuSans-74" transform="translate(680.859375 0)"/>
      <use xlink:href="#DejaVuSans-20" transform="translate(720.068359 0)"/>
      <use xlink:href="#DejaVuSans-6d" transform="translate(751.855469 0)"/>
      <use xlink:href="#DejaVuSans-75" transform="translate(849.267578 0)"/>
      <use xlink:href="#DejaVuSans-73" transform="translate(912.646484 0)"/>
      <use xlink:href="#DejaVuSans-74" transform="translate(964.746094 0)"/>
      <use xlink:href="#DejaVuSans-20" transform="translate(1003.955078 0)"/>
      <use xlink:href="#DejaVuSans-74" transform="translate(1035.742188 0)"/>
      <use xlink:href="#DejaVuSans-68" transform="translate(1074.951172 0)"/>
      <use xlink:href="#DejaVuSans-65" transform="translate(1138.330078 0)"/>
      <use xlink:href="#DejaVuSans-20" transform="translate(1199.853516 0)"/>
      <use xlink:href="#DejaVuSans-6d" transform="translate(1231.640625 0)"/>
      <use xlink:href="#DejaVuSans-6f" transform="translate(1329.052734 0)"/>
      <use xlink:href="#DejaVuSans-64" transform="translate(1390.234375 0)"/>
      <use xlink:href="#DejaVuSans-65" transform="translate(1453.710938 0)"/>
      <use xlink:href="#DejaVuSans-6c" transform="translate(1515.234375 0)"/>
      <use xlink:href="#DejaVuSans-20" transform="translate(1543.017578 0)"/>
      <use xlink:href="#DejaVuSans-62" transform="translate(1574.804688 0)"/>
      <use xlink:href="#DejaVuSans-65" transform="translate(1638.28125 0)"/>
      <use xlink:href="#DejaVuSans-20" transform="translate(1699.804688 0)"/>
      <use xlink:href="#DejaVuSans-62" transform="translate(1731.591797 0)"/>
      <use xlink:href="#DejaVuSans-65" transform="translate(1795.068359 0)"/>
      <use xlink:href="#DejaVuSans-66" transform="translate(1856.591797 0)"/>
      <use xlink:href="#DejaVuSans-6f" transform="translate(1891.796875 0)"/>
      <use xlink:href="#DejaVuSans-72" transform="translate(1952.978516 0)"/>
      <use xlink:href="#DejaVuSans-65" transform="translate(1991.841797 0)"/>
      <use xlink:href="#DejaVuSans-20" transform="translate(2053.365234 0)"/>
      <use xlink:href="#DejaVuSans-74" transform="translate(2085.152344 0)"/>
      <use xlink:href="#DejaVuSans-68" transform="translate(2124.361328 0)"/>
      <use xlink:href="#DejaVuSans-65" transform="translate(2187.740234 0)"/>
      <use xlink:href="#DejaVuSans-20" transform="translate(2249.263672 0)"/>
      <use xlink:href="#DejaVuSans-63" transform="translate(2281.050781 0)"/>
      <use xlink:href="#DejaVuSans-6c" transform="translate(2336.03125 0)"/>
      <use xlink:href="#DejaVuSans-69" transform="translate(2363.814453 0)"/>
      <use xlink:href="#DejaVuSans-6e" transform="translate(2391.597656 0)"/>
      <use xlink:href="#DejaVuSans-69" transform="translate(2454.976562 0)"/>
      <use xlink:href="#DejaVuSans-63" transform="translate(2482.759766 0)"/>
      <use xlink:href="#DejaVuSans-69" transform="translate(2537.740234 0)"/>
      <use xlink:href="#DejaVuSans-61" transform="translate(2565.523438 0)"/>
      <use xlink:href="#DejaVuSans-6e" transform="translate(2626.802734 0)"/>
      <use xlink:href="#DejaVuSans-20" transform="translate(2690.181641 0)"/>
      <use xlink:href="#DejaVuSans-72" transform="translate(2721.96875 0)"/>
      <use xlink:href="#DejaVuSans-65" transform="translate(2760.832031 0)"/>
      <use xlink:href="#DejaVuSans-66" transform="translate(2822.355469 0)"/>
      <use xlink:href="#DejaVuSans-65" transform="translate(2857.560547 0)"/>
      <use xlink:href="#DejaVuSans-72" transform="translate(2919.083984 0)"/>
      <use xlink:href="#DejaVuSans-73" transform="translate(2960.197266 0)"/>
      <use xlink:href="#DejaVuSans-3f" transform="translate(3012.296875 0)"/>
      <use xlink:href="#DejaVuSans-20" transform="translate(3065.373047 0)"/>
      <use xlink:href="#DejaVuSans-28" transform="translate(3097.160156 0)"/>
      <use xlink:href="#DejaVuSans-72" transform="translate(3136.173828 0)"/>
      <use xlink:href="#DejaVuSans-69" transform="translate(3177.287109 0)"/>
      <use xlink:href="#DejaVuSans-73" transform="translate(3205.070312 0)"/>
      <use xlink:href="#DejaVuSans-6b" transform="translate(3257.169922 0)"/>
      <use xlink:href="#DejaVuSans-20" transform="translate(3315.080078 0)"/>
      <use xlink:href="#DejaVuSans-74" transform="translate(3346.867188 0)"/>
      <use xlink:href="#DejaVuSans-68" transform="translate(3386.076172 0)"/>
      <use xlink:href="#DejaVuSans-72" transform="translate(3449.455078 0)"/>
      <use xlink:href="#DejaVuSans-65" transform="translate(3488.318359 0)"/>
      <use xlink:href="#DejaVuSans-73" transform="translate(3549.841797 0)"/>
      <use xlink:href="#DejaVuSans-68" transform="translate(3601.941406 0)"/>
      <use xlink:href="#DejaVuSans-6f" transform="translate(3665.320312 0)"/>
      <use xlink:href="#DejaVuSans-6c" transform="translate(3726.501953 0)"/>
      <use xlink:href="#DejaVuSans-64" transform="translate(3754.285156 0)"/>
      <use xlink:href="#DejaVuSans-29" transform="translate(3817.761719 0)"/>
     </g>
    </g>
   </g>
   <g id="matplotlib.axis_2">
    <g id="ytick_1">
     <g id="line2d_7">
      <defs>
       <path id="mc706dfda7d" d="M 0 0 
L -3.5 0 
" style="stroke: #000000; stroke-width: 0.8"/>
      </defs>
      <g>
       <use xlink:href="#mc706dfda7d" x="54.015" y="348.890128" style="stroke: #000000; stroke-width: 0.8"/>
      </g>
     </g>
     <g id="text_8">
      <!-- 0.00 -->
      <g transform="translate(24.749375 352.689347) scale(0.1 -0.1)">
       <defs>
        <path id="DejaVuSans-2e" d="M 684 794 
L 1344 794 
L 1344 0 
L 684 0 
L 684 794 
z
" transform="scale(0.015625)"/>
       </defs>
       <use xlink:href="#DejaVuSans-30"/>
       <use xlink:href="#DejaVuSans-2e" transform="translate(63.623047 0)"/>
       <use xlink:href="#DejaVuSans-30" transform="translate(95.410156 0)"/>
       <use xlink:href="#DejaVuSans-30" transform="translate(159.033203 0)"/>
      </g>
     </g>
    </g>
    <g id="ytick_2">
     <g id="line2d_8">
      <g>
       <use xlink:href="#mc706dfda7d" x="54.015" y="281.311946" style="stroke: #000000; stroke-width: 0.8"/>
      </g>
     </g>
     <g id="text_9">
      <!-- 0.02 -->
      <g transform="translate(24.749375 285.111165) scale(0.1 -0.1)">
       <use xlink:href="#DejaVuSans-30"/>
       <use xlink:href="#DejaVuSans-2e" transform="translate(63.623047 0)"/>
       <use xlink:href="#DejaVuSans-30" transform="translate(95.410156 0)"/>
       <use xlink:href="#DejaVuSans-32" transform="translate(159.033203 0)"/>
      </g>
     </g>
    </g>
    <g id="ytick_3">
     <g id="line2d_9">
      <g>
       <use xlink:href="#mc706dfda7d" x="54.015" y="213.733764" style="stroke: #000000; stroke-width: 0.8"/>
      </g>
     </g>
     <g id="text_10">
      <!-- 0.04 -->
      <g transform="translate(24.749375 217.532983) scale(0.1 -0.1)">
       <defs>
        <path id="DejaVuSans-34" d="M 2419 4116 
L 825 1625 
L 2419 1625 
L 2419 4116 
z
M 2253 4666 
L 3047 4666 
L 3047 1625 
L 3713 1625 
L 3713 1100 
L 3047 1100 
L 3047 0 
L 2419 0 
L 2419 1100 
L 313 1100 
L 313 1709 
L 2253 4666 
z
" transform="scale(0.015625)"/>
       </defs>
       <use xlink:href="#DejaVuSans-30"/>
       <use xlink:href="#DejaVuSans-2e" transform="translate(63.623047 0)"/>
       <use xlink:href="#DejaVuSans-30" transform="translate(95.410156 0)"/>
       <use xlink:href="#DejaVuSans-34" transform="translate(159.033203 0)"/>
      </g>
     </g>
    </g>
    <g id="ytick_4">
     <g id="line2d_10">
      <g>
       <use xlink:href="#mc706dfda7d" x="54.015" y="146.155582" style="stroke: #000000; stroke-width: 0.8"/>
      </g>
     </g>
     <g id="text_11">
      <!-- 0.06 -->
      <g transform="translate(24.749375 149.954801) scale(0.1 -0.1)">
       <defs>
        <path id="DejaVuSans-36" d="M 2113 2584 
Q 1688 2584 1439 2293 
Q 1191 2003 1191 1497 
Q 1191 994 1439 701 
Q 1688 409 2113 409 
Q 2538 409 2786 701 
Q 3034 994 3034 1497 
Q 3034 2003 2786 2293 
Q 2538 2584 2113 2584 
z
M 3366 4563 
L 3366 3988 
Q 3128 4100 2886 4159 
Q 2644 4219 2406 4219 
Q 1781 4219 1451 3797 
Q 1122 3375 1075 2522 
Q 1259 2794 1537 2939 
Q 1816 3084 2150 3084 
Q 2853 3084 3261 2657 
Q 3669 2231 3669 1497 
Q 3669 778 3244 343 
Q 2819 -91 2113 -91 
Q 1303 -91 875 529 
Q 447 1150 447 2328 
Q 447 3434 972 4092 
Q 1497 4750 2381 4750 
Q 2619 4750 2861 4703 
Q 3103 4656 3366 4563 
z
" transform="scale(0.015625)"/>
       </defs>
       <use xlink:href="#DejaVuSans-30"/>
       <use xlink:href="#DejaVuSans-2e" transform="translate(63.623047 0)"/>
       <use xlink:href="#DejaVuSans-30" transform="translate(95.410156 0)"/>
       <use xlink:href="#DejaVuSans-36" transform="translate(159.033203 0)"/>
      </g>
     </g>
    </g>
    <g id="ytick_5">
     <g id="line2d_11">
      <g>
       <use xlink:href="#mc706dfda7d" x="54.015" y="78.577401" style="stroke: #000000; stroke-width: 0.8"/>
      </g>
     </g>
     <g id="text_12">
      <!-- 0.08 -->
      <g transform="translate(24.749375 82.376619) scale(0.1 -0.1)">
       <defs>
        <path id="DejaVuSans-38" d="M 2034 2216 
Q 1584 2216 1326 1975 
Q 1069 1734 1069 1313 
Q 1069 891 1326 650 
Q 1584 409 2034 409 
Q 2484 409 2743 651 
Q 3003 894 3003 1313 
Q 3003 1734 2745 1975 
Q 2488 2216 2034 2216 
z
M 1403 2484 
Q 997 2584 770 2862 
Q 544 3141 544 3541 
Q 544 4100 942 4425 
Q 1341 4750 2034 4750 
Q 2731 4750 3128 4425 
Q 3525 4100 3525 3541 
Q 3525 3141 3298 2862 
Q 3072 2584 2669 2484 
Q 3125 2378 3379 2068 
Q 3634 1759 3634 1313 
Q 3634 634 3220 271 
Q 2806 -91 2034 -91 
Q 1263 -91 848 271 
Q 434 634 434 1313 
Q 434 1759 690 2068 
Q 947 2378 1403 2484 
z
M 1172 3481 
Q 1172 3119 1398 2916 
Q 1625 2713 2034 2713 
Q 2441 2713 2670 2916 
Q 2900 3119 2900 3481 
Q 2900 3844 2670 4047 
Q 2441 4250 2034 4250 
Q 1625 4250 1398 4047 
Q 1172 3844 1172 3481 
z
" transform="scale(0.015625)"/>
       </defs>
       <use xlink:href="#DejaVuSans-30"/>
       <use xlink:href="#DejaVuSans-2e" transform="translate(63.623047 0)"/>
       <use xlink:href="#DejaVuSans-30" transform="translate(95.410156 0)"/>
       <use xlink:href="#DejaVuSans-38" transform="translate(159.033203 0)"/>
      </g>
     </g>
    </g>
    <g id="ytick_6">
     <g id="line2d_12">
      <g>
       <use xlink:href="#mc706dfda7d" x="54.015" y="10.999219" style="stroke: #000000; stroke-width: 0.8"/>
      </g>
     </g>
     <g id="text_13">
      <!-- 0.10 -->
      <g transform="translate(24.749375 14.798437) scale(0.1 -0.1)">
       <use xlink:href="#DejaVuSans-30"/>
       <use xlink:href="#DejaVuSans-2e" transform="translate(63.623047 0)"/>
       <use xlink:href="#DejaVuSans-31" transform="translate(95.410156 0)"/>
       <use xlink:href="#DejaVuSans-30" transform="translate(159.033203 0)"/>
      </g>
     </g>
    </g>
    <g id="text_14">
     <!-- Net benefit (higher = better decisions) -->
     <g transform="translate(17.837813 332.59875) rotate(-90) scale(0.14 -0.14)">
      <defs>
       <path id="DejaVuSans-4e" d="M 628 4666 
L 1478 4666 
L 3547 763 
L 3547 4666 
L 4159 4666 
L 4159 0 
L 3309 0 
L 1241 3903 
L 1241 0 
L 628 0 
L 628 4666 
z
" transform="scale(0.015625)"/>
       <path id="DejaVuSans-67" d="M 2906 1791 
Q 2906 2416 2648 2759 
Q 2391 3103 1925 3103 
Q 1463 3103 1205 2759 
Q 947 2416 947 1791 
Q 947 1169 1205 825 
Q 1463 481 1925 481 
Q 2391 481 2648 825 
Q 2906 1169 2906 1791 
z
M 3481 434 
Q 3481 -459 3084 -895 
Q 2688 -1331 1869 -1331 
Q 1566 -1331 1297 -1286 
Q 1028 -1241 775 -1147 
L 775 -588 
Q 1028 -725 1275 -790 
Q 1522 -856 1778 -856 
Q 2344 -856 2625 -561 
Q 2906 -266 2906 331 
L 2906 616 
Q 2728 306 2450 153 
Q 2172 0 1784 0 
Q 1141 0 747 490 
Q 353 981 353 1791 
Q 353 2603 747 3093 
Q 1141 3584 1784 3584 
Q 2172 3584 2450 3431 
Q 2728 3278 2906 2969 
L 2906 3500 
L 3481 3500 
L 3481 434 
z
" transform="scale(0.015625)"/>
       <path id="DejaVuSans-3d" d="M 678 2906 
L 4684 2906 
L 4684 2381 
L 678 2381 
L 678 2906 
z
M 678 1631 
L 4684 1631 
L 4684 1100 
L 678 1100 
L 678 1631 
z
" transform="scale(0.015625)"/>
      </defs>
      <use xlink:href="#DejaVuSans-4e"/>
      <use xlink:href="#DejaVuSans-65" transform="translate(74.804688 0)"/>
      <use xlink:href="#DejaVuSans-74" transform="translate(136.328125 0)"/>
      <use xlink:href="#DejaVuSans-20" transform="translate(175.537109 0)"/>
      <use xlink:href="#DejaVuSans-62" transform="translate(207.324219 0)"/>
      <use xlink:href="#DejaVuSans-65" transform="translate(270.800781 0)"/>
      <use xlink:href="#DejaVuSans-6e" transform="translate(332.324219 0)"/>
      <use xlink:href="#DejaVuSans-65" transform="translate(395.703125 0)"/>
      <use xlink:href="#DejaVuSans-66" transform="translate(457.226562 0)"/>
      <use xlink:href="#DejaVuSans-69" transform="translate(492.431641 0)"/>
      <use xlink:href="#DejaVuSans-74" transform="translate(520.214844 0)"/>
      <use xlink:href="#DejaVuSans-20" transform="translate(559.423828 0)"/>
      <use xlink:href="#DejaVuSans-28" transform="translate(591.210938 0)"/>
      <use xlink:href="#DejaVuSans-68" transform="translate(630.224609 0)"/>
      <use xlink:href="#DejaVuSans-69" transform="translate(693.603516 0)"/>
      <use xlink:href="#DejaVuSans-67" transform="translate(721.386719 0)"/>
      <use xlink:href="#DejaVuSans-68" transform="translate(784.863281 0)"/>
      <use xlink:href="#DejaVuSans-65" transform="translate(848.242188 0)"/>
      <use xlink:href="#DejaVuSans-72" transform="translate(909.765625 0)"/>
      <use xlink:href="#DejaVuSans-20" transform="translate(950.878906 0)"/>
      <use xlink:href="#DejaVuSans-3d" transform="translate(982.666016 0)"/>
      <use xlink:href="#DejaVuSans-20" transform="translate(1066.455078 0)"/>
      <use xlink:href="#DejaVuSans-62" transform="translate(1098.242188 0)"/>
      <use xlink:href="#DejaVuSans-65" transform="translate(1161.71875 0)"/>
      <use xlink:href="#DejaVuSans-74" transform="translate(1223.242188 0)"/>
      <use xlink:href="#DejaVuSans-74" transform="translate(1262.451172 0)"/>
      <use xlink:href="#DejaVuSans-65" transform="translate(1301.660156 0)"/>
      <use xlink:href="#DejaVuSans-72" transform="translate(1363.183594 0)"/>
      <use xlink:href="#DejaVuSans-20" transform="translate(1404.296875 0)"/>
      <use xlink:href="#DejaVuSans-64" transform="translate(1436.083984 0)"/>
      <use xlink:href="#DejaVuSans-65" transform="translate(1499.560547 0)"/>
      <use xlink:href="#DejaVuSans-63" transform="translate(1561.083984 0)"/>
      <use xlink:href="#DejaVuSans-69" transform="translate(1616.064453 0)"/>
      <use xlink:href="#DejaVuSans-73" transform="translate(1643.847656 0)"/>
      <use xlink:href="#DejaVuSans-69" transform="translate(1695.947266 0)"/>
      <use xlink:href="#DejaVuSans-6f" transform="translate(1723.730469 0)"/>
      <use xlink:href="#DejaVuSans-6e" transform="translate(1784.912109 0)"/>
      <use xlink:href="#DejaVuSans-73" transform="translate(1848.291016 0)"/>
      <use xlink:href="#DejaVuSans-29" transform="translate(1900.390625 0)"/>
     </g>
    </g>
   </g>
   <g id="line2d_13">
    <path d="M 54.015 127.130799 
L 76.093793 159.346613 
L 98.172586 192.22667 
L 120.251379 225.791729 
L 142.330172 260.063421 
L 164.408966 295.064297 
L 186.487759 330.817881 
L 208.566552 367.348716 
L 230.645345 404.682427 
L 242.461491 425.106719 
" clip-path="url(#p362e3a9129)" style="fill: none; stroke-dasharray: 4.44,1.92; stroke-dashoffset: 0; stroke: #000000; stroke-width: 1.2"/>
   </g>
   <g id="line2d_14">
    <path d="M 54.015 348.890128 
L 76.093793 348.890128 
L 98.172586 348.890128 
L 120.251379 348.890128 
L 142.330172 348.890128 
L 164.408966 348.890128 
L 186.487759 348.890128 
L 208.566552 348.890128 
L 230.645345 348.890128 
L 252.724138 348.890128 
L 274.802931 348.890128 
L 296.881724 348.890128 
L 318.960517 348.890128 
L 341.03931 348.890128 
L 363.118103 348.890128 
L 385.196897 348.890128 
L 407.27569 348.890128 
L 429.354483 348.890128 
L 451.433276 348.890128 
L 473.512069 348.890128 
L 495.590862 348.890128 
L 517.669655 348.890128 
L 539.748448 348.890128 
L 561.827241 348.890128 
L 583.906034 348.890128 
L 605.984828 348.890128 
L 628.063621 348.890128 
L 650.142414 348.890128 
L 672.221207 348.890128 
L 694.3 348.890128 
" clip-path="url(#p362e3a9129)" style="fill: none; stroke: #000000; stroke-width: 1.2; stroke-linecap: square"/>
   </g>
   <g id="line2d_15">
    <path d="M 54.015 118.165835 
L 76.093793 138.113889 
L 98.172586 156.203801 
L 120.251379 170.466606 
L 142.330172 185.351516 
L 164.408966 194.642694 
L 186.487759 205.78686 
L 208.566552 217.287232 
L 230.645345 226.55409 
L 252.724138 235.71628 
L 274.802931 243.366698 
L 296.881724 251.329965 
L 318.960517 262.287735 
L 341.03931 269.477923 
L 363.118103 272.222868 
L 385.196897 278.132207 
L 407.27569 287.909704 
L 429.354483 293.451372 
L 451.433276 298.137686 
L 473.512069 302.591735 
L 495.590862 305.809512 
L 517.669655 310.00575 
L 539.748448 319.404825 
L 561.827241 326.453568 
L 583.906034 330.254297 
L 605.984828 332.505077 
L 628.063621 337.964712 
L 650.142414 341.22226 
L 672.221207 339.465581 
L 694.3 342.400865 
" clip-path="url(#p362e3a9129)" style="fill: none; stroke: #888888; stroke-width: 2; stroke-linecap: square"/>
   </g>
   <g id="line2d_16">
    <path d="M 54.015 121.051212 
L 76.093793 140.520621 
L 98.172586 154.249561 
L 120.251379 176.909071 
L 142.330172 189.121594 
L 164.408966 201.240819 
L 186.487759 208.989893 
L 208.566552 216.5656 
L 230.645345 232.016205 
L 252.724138 240.860546 
L 274.802931 245.781242 
L 296.881724 250.813773 
L 318.960517 259.124865 
L 341.03931 260.13292 
L 363.118103 265.388588 
L 385.196897 266.7344 
L 407.27569 266.49183 
L 429.354483 273.95619 
L 451.433276 275.349774 
L 473.512069 280.097705 
L 495.590862 284.324493 
L 517.669655 288.502868 
L 539.748448 292.347323 
L 561.827241 296.063064 
L 583.906034 296.185669 
L 605.984828 298.247572 
L 628.063621 300.07877 
L 650.142414 298.223963 
L 672.221207 300.389394 
L 694.3 299.596691 
" clip-path="url(#p362e3a9129)" style="fill: none; stroke: #0f6e56; stroke-width: 2.2; stroke-linecap: square"/>
   </g>
   <g id="line2d_17">
    <path d="M 54.015 120.689437 
L 76.093793 145.458878 
L 98.172586 160.256374 
L 120.251379 171.704142 
L 142.330172 187.328508 
L 164.408966 197.709428 
L 186.487759 209.074431 
L 208.566552 221.427121 
L 230.645345 233.417733 
L 252.724138 238.822252 
L 274.802931 243.01335 
L 296.881724 248.312231 
L 318.960517 251.413486 
L 341.03931 256.923115 
L 363.118103 257.629368 
L 385.196897 261.326681 
L 407.27569 264.881542 
L 429.354483 270.483278 
L 451.433276 271.596725 
L 473.512069 275.074766 
L 495.590862 276.860577 
L 517.669655 279.476137 
L 539.748448 280.889009 
L 561.827241 284.522949 
L 583.906034 288.906047 
L 605.984828 295.697737 
L 628.063621 299.743708 
L 650.142414 297.641593 
L 672.221207 298.949874 
L 694.3 299.097517 
" clip-path="url(#p362e3a9129)" style="fill: none; stroke: #185fa5; stroke-width: 2.5; stroke-linecap: square"/>
   </g>
   <g id="line2d_18">
    <path d="M 54.015 348.890128 
L 694.3 348.890128 
" clip-path="url(#p362e3a9129)" style="fill: none; stroke: #808080; stroke-width: 0.6; stroke-linecap: square"/>
   </g>
   <g id="patch_3">
    <path d="M 54.015 382.679219 
L 54.015 10.999219 
" style="fill: none; stroke: #000000; stroke-width: 0.8; stroke-linejoin: miter; stroke-linecap: square"/>
   </g>
   <g id="patch_4">
    <path d="M 694.3 382.679219 
L 694.3 10.999219 
" style="fill: none; stroke: #000000; stroke-width: 0.8; stroke-linejoin: miter; stroke-linecap: square"/>
   </g>
   <g id="patch_5">
    <path d="M 54.015 382.679219 
L 694.3 382.679219 
" style="fill: none; stroke: #000000; stroke-width: 0.8; stroke-linejoin: miter; stroke-linecap: square"/>
   </g>
   <g id="patch_6">
    <path d="M 54.015 10.999219 
L 694.3 10.999219 
" style="fill: none; stroke: #000000; stroke-width: 0.8; stroke-linejoin: miter; stroke-linecap: square"/>
   </g>
   <g id="legend_1">
    <g id="patch_7">
     <path d="M 478.500625 108.667969 
L 685.9 108.667969 
Q 688.3 108.667969 688.3 106.267969 
L 688.3 19.399219 
Q 688.3 16.999219 685.9 16.999219 
L 478.500625 16.999219 
Q 476.100625 16.999219 476.100625 19.399219 
L 476.100625 106.267969 
Q 476.100625 108.667969 478.500625 108.667969 
z
" style="fill: #ffffff; opacity: 0.8; stroke: #cccccc; stroke-linejoin: miter"/>
    </g>
    <g id="line2d_19">
     <path d="M 480.900625 26.717344 
L 492.900625 26.717344 
L 504.900625 26.717344 
" style="fill: none; stroke-dasharray: 4.44,1.92; stroke-dashoffset: 0; stroke: #000000; stroke-width: 1.2"/>
    </g>
    <g id="text_15">
     <!-- Treat all -->
     <g transform="translate(514.500625 30.917344) scale(0.12 -0.12)">
      <defs>
       <path id="DejaVuSans-54" d="M -19 4666 
L 3928 4666 
L 3928 4134 
L 2272 4134 
L 2272 0 
L 1638 0 
L 1638 4134 
L -19 4134 
L -19 4666 
z
" transform="scale(0.015625)"/>
      </defs>
      <use xlink:href="#DejaVuSans-54"/>
      <use xlink:href="#DejaVuSans-72" transform="translate(46.333984 0)"/>
      <use xlink:href="#DejaVuSans-65" transform="translate(85.197266 0)"/>
      <use xlink:href="#DejaVuSans-61" transform="translate(146.720703 0)"/>
      <use xlink:href="#DejaVuSans-74" transform="translate(208 0)"/>
      <use xlink:href="#DejaVuSans-20" transform="translate(247.208984 0)"/>
      <use xlink:href="#DejaVuSans-61" transform="translate(278.996094 0)"/>
      <use xlink:href="#DejaVuSans-6c" transform="translate(340.275391 0)"/>
      <use xlink:href="#DejaVuSans-6c" transform="translate(368.058594 0)"/>
     </g>
    </g>
    <g id="line2d_20">
     <path d="M 480.900625 44.331094 
L 492.900625 44.331094 
L 504.900625 44.331094 
" style="fill: none; stroke: #000000; stroke-width: 1.2; stroke-linecap: square"/>
    </g>
    <g id="text_16">
     <!-- Treat none -->
     <g transform="translate(514.500625 48.531094) scale(0.12 -0.12)">
      <use xlink:href="#DejaVuSans-54"/>
      <use xlink:href="#DejaVuSans-72" transform="translate(46.333984 0)"/>
      <use xlink:href="#DejaVuSans-65" transform="translate(85.197266 0)"/>
      <use xlink:href="#DejaVuSans-61" transform="translate(146.720703 0)"/>
      <use xlink:href="#DejaVuSans-74" transform="translate(208 0)"/>
      <use xlink:href="#DejaVuSans-20" transform="translate(247.208984 0)"/>
      <use xlink:href="#DejaVuSans-6e" transform="translate(278.996094 0)"/>
      <use xlink:href="#DejaVuSans-6f" transform="translate(342.375 0)"/>
      <use xlink:href="#DejaVuSans-6e" transform="translate(403.556641 0)"/>
      <use xlink:href="#DejaVuSans-65" transform="translate(466.935547 0)"/>
     </g>
    </g>
    <g id="line2d_21">
     <path d="M 480.900625 61.944844 
L 492.900625 61.944844 
L 504.900625 61.944844 
" style="fill: none; stroke: #888888; stroke-width: 2; stroke-linecap: square"/>
    </g>
    <g id="text_17">
     <!-- Age alone -->
     <g transform="translate(514.500625 66.144844) scale(0.12 -0.12)">
      <defs>
       <path id="DejaVuSans-41" d="M 2188 4044 
L 1331 1722 
L 3047 1722 
L 2188 4044 
z
M 1831 4666 
L 2547 4666 
L 4325 0 
L 3669 0 
L 3244 1197 
L 1141 1197 
L 716 0 
L 50 0 
L 1831 4666 
z
" transform="scale(0.015625)"/>
      </defs>
      <use xlink:href="#DejaVuSans-41"/>
      <use xlink:href="#DejaVuSans-67" transform="translate(68.408203 0)"/>
      <use xlink:href="#DejaVuSans-65" transform="translate(131.884766 0)"/>
      <use xlink:href="#DejaVuSans-20" transform="translate(193.408203 0)"/>
      <use xlink:href="#DejaVuSans-61" transform="translate(225.195312 0)"/>
      <use xlink:href="#DejaVuSans-6c" transform="translate(286.474609 0)"/>
      <use xlink:href="#DejaVuSans-6f" transform="translate(314.257812 0)"/>
      <use xlink:href="#DejaVuSans-6e" transform="translate(375.439453 0)"/>
      <use xlink:href="#DejaVuSans-65" transform="translate(438.818359 0)"/>
     </g>
    </g>
    <g id="line2d_22">
     <path d="M 480.900625 79.558594 
L 492.900625 79.558594 
L 504.900625 79.558594 
" style="fill: none; stroke: #0f6e56; stroke-width: 2.2; stroke-linecap: square"/>
    </g>
    <g id="text_18">
     <!-- Clinical markers -->
     <g transform="translate(514.500625 83.758594) scale(0.12 -0.12)">
      <defs>
       <path id="DejaVuSans-43" d="M 4122 4306 
L 4122 3641 
Q 3803 3938 3442 4084 
Q 3081 4231 2675 4231 
Q 1875 4231 1450 3742 
Q 1025 3253 1025 2328 
Q 1025 1406 1450 917 
Q 1875 428 2675 428 
Q 3081 428 3442 575 
Q 3803 722 4122 1019 
L 4122 359 
Q 3791 134 3420 21 
Q 3050 -91 2638 -91 
Q 1578 -91 968 557 
Q 359 1206 359 2328 
Q 359 3453 968 4101 
Q 1578 4750 2638 4750 
Q 3056 4750 3426 4639 
Q 3797 4528 4122 4306 
z
" transform="scale(0.015625)"/>
      </defs>
      <use xlink:href="#DejaVuSans-43"/>
      <use xlink:href="#DejaVuSans-6c" transform="translate(69.824219 0)"/>
      <use xlink:href="#DejaVuSans-69" transform="translate(97.607422 0)"/>
      <use xlink:href="#DejaVuSans-6e" transform="translate(125.390625 0)"/>
      <use xlink:href="#DejaVuSans-69" transform="translate(188.769531 0)"/>
      <use xlink:href="#DejaVuSans-63" transform="translate(216.552734 0)"/>
      <use xlink:href="#DejaVuSans-61" transform="translate(271.533203 0)"/>
      <use xlink:href="#DejaVuSans-6c" transform="translate(332.8125 0)"/>
      <use xlink:href="#DejaVuSans-20" transform="translate(360.595703 0)"/>
      <use xlink:href="#DejaVuSans-6d" transform="translate(392.382812 0)"/>
      <use xlink:href="#DejaVuSans-61" transform="translate(489.794922 0)"/>
      <use xlink:href="#DejaVuSans-72" transform="translate(551.074219 0)"/>
      <use xlink:href="#DejaVuSans-6b" transform="translate(592.1875 0)"/>
      <use xlink:href="#DejaVuSans-65" transform="translate(646.472656 0)"/>
      <use xlink:href="#DejaVuSans-72" transform="translate(707.996094 0)"/>
      <use xlink:href="#DejaVuSans-73" transform="translate(749.109375 0)"/>
     </g>
    </g>
    <g id="line2d_23">
     <path d="M 480.900625 97.172344 
L 492.900625 97.172344 
L 504.900625 97.172344 
" style="fill: none; stroke: #185fa5; stroke-width: 2.5; stroke-linecap: square"/>
    </g>
    <g id="text_19">
     <!-- Clinical markers + wearable -->
     <g transform="translate(514.500625 101.372344) scale(0.12 -0.12)">
      <defs>
       <path id="DejaVuSans-2b" d="M 2944 4013 
L 2944 2272 
L 4684 2272 
L 4684 1741 
L 2944 1741 
L 2944 0 
L 2419 0 
L 2419 1741 
L 678 1741 
L 678 2272 
L 2419 2272 
L 2419 4013 
L 2944 4013 
z
" transform="scale(0.015625)"/>
      </defs>
      <use xlink:href="#DejaVuSans-43"/>
      <use xlink:href="#DejaVuSans-6c" transform="translate(69.824219 0)"/>
      <use xlink:href="#DejaVuSans-69" transform="translate(97.607422 0)"/>
      <use xlink:href="#DejaVuSans-6e" transform="translate(125.390625 0)"/>
      <use xlink:href="#DejaVuSans-69" transform="translate(188.769531 0)"/>
      <use xlink:href="#DejaVuSans-63" transform="translate(216.552734 0)"/>
      <use xlink:href="#DejaVuSans-61" transform="translate(271.533203 0)"/>
      <use xlink:href="#DejaVuSans-6c" transform="translate(332.8125 0)"/>
      <use xlink:href="#DejaVuSans-20" transform="translate(360.595703 0)"/>
      <use xlink:href="#DejaVuSans-6d" transform="translate(392.382812 0)"/>
      <use xlink:href="#DejaVuSans-61" transform="translate(489.794922 0)"/>
      <use xlink:href="#DejaVuSans-72" transform="translate(551.074219 0)"/>
      <use xlink:href="#DejaVuSans-6b" transform="translate(592.1875 0)"/>
      <use xlink:href="#DejaVuSans-65" transform="translate(646.472656 0)"/>
      <use xlink:href="#DejaVuSans-72" transform="translate(707.996094 0)"/>
      <use xlink:href="#DejaVuSans-73" transform="translate(749.109375 0)"/>
      <use xlink:href="#DejaVuSans-20" transform="translate(801.208984 0)"/>
      <use xlink:href="#DejaVuSans-2b" transform="translate(832.996094 0)"/>
      <use xlink:href="#DejaVuSans-20" transform="translate(916.785156 0)"/>
      <use xlink:href="#DejaVuSans-77" transform="translate(948.572266 0)"/>
      <use xlink:href="#DejaVuSans-65" transform="translate(1030.359375 0)"/>
      <use xlink:href="#DejaVuSans-61" transform="translate(1091.882812 0)"/>
      <use xlink:href="#DejaVuSans-72" transform="translate(1153.162109 0)"/>
      <use xlink:href="#DejaVuSans-61" transform="translate(1194.275391 0)"/>
      <use xlink:href="#DejaVuSans-62" transform="translate(1255.554688 0)"/>
      <use xlink:href="#DejaVuSans-6c" transform="translate(1319.03125 0)"/>
      <use xlink:href="#DejaVuSans-65" transform="translate(1346.814453 0)"/>
     </g>
    </g>
   </g>
  </g>
 </g>
 <defs>
  <clipPath id="p362e3a9129">
   <rect x="54.015" y="10.999219" width="640.285" height="371.68"/>
  </clipPath>
 </defs>
</svg>
